<?xml version="1.0" encoding="utf-8"?>
<!-- Generator: Adobe Illustrator 16.0.0, SVG Export Plug-In . SVG Version: 6.00 Build 0)  -->
<!DOCTYPE svg PUBLIC "-//W3C//DTD SVG 1.1//EN" "http://www.w3.org/Graphics/SVG/1.1/DTD/svg11.dtd" [
	<!ENTITY ns_extend "http://ns.adobe.com/Extensibility/1.0/">
	<!ENTITY ns_ai "http://ns.adobe.com/AdobeIllustrator/10.0/">
	<!ENTITY ns_graphs "http://ns.adobe.com/Graphs/1.0/">
	<!ENTITY ns_vars "http://ns.adobe.com/Variables/1.0/">
	<!ENTITY ns_imrep "http://ns.adobe.com/ImageReplacement/1.0/">
	<!ENTITY ns_sfw "http://ns.adobe.com/SaveForWeb/1.0/">
	<!ENTITY ns_custom "http://ns.adobe.com/GenericCustomNamespace/1.0/">
	<!ENTITY ns_adobe_xpath "http://ns.adobe.com/XPath/1.0/">
]>
<svg version="1.1" id="Layer_1" xmlns:x="&ns_extend;" xmlns:i="&ns_ai;" xmlns:graph="&ns_graphs;"
	 xmlns="http://www.w3.org/2000/svg" xmlns:xlink="http://www.w3.org/1999/xlink" x="0px" y="0px" width="24px" height="24px"
	 viewBox="0 0 24 24" enable-background="new 0 0 24 24" xml:space="preserve">
<metadata>
	<sfw  xmlns="&ns_sfw;">
		<slices></slices>
		<sliceSourceBounds  height="20.248" width="22.986" x="269.007" y="270.376" bottomLeftOrigin="true"></sliceSourceBounds>
	</sfw>
</metadata>
<g>
	<path fill="#EAEDFF" d="M12.193,2.129c3.264,0.038,5.213,0.084,5.852,0.141c1.525,0.094,2.477,0.197,2.852,0.309
		c0.65,0.194,1.121,0.466,1.416,0.816c0.324,0.338,0.568,0.788,0.73,1.351c0.094,0.294,0.197,1.01,0.311,2.148
		c0.094,1.263,0.141,2.391,0.141,3.385c0,1.294-0.088,2.754-0.264,4.38c-0.094,0.606-0.193,1.028-0.299,1.266
		c-0.232,0.65-0.609,1.142-1.135,1.473c-0.176,0.119-0.414,0.234-0.713,0.347c-0.25,0.088-0.578,0.15-0.984,0.188
		c-0.545,0.063-1.58,0.128-3.105,0.196c-0.281,0.05-1.709,0.075-4.285,0.075H9.651c-1.176,0-2.723-0.057-4.643-0.169
		c-0.944-0.075-1.579-0.159-1.904-0.253c-0.688-0.2-1.229-0.554-1.622-1.06c-0.3-0.395-0.507-0.903-0.619-1.529
		c-0.238-1.581-0.356-3.241-0.356-4.979c0-2.032,0.134-3.805,0.403-5.318c0.131-0.563,0.372-1.044,0.722-1.444
		C1.914,3.17,2.126,2.999,2.271,2.936c0.131-0.1,0.359-0.203,0.685-0.31C3.143,2.57,3.48,2.508,3.968,2.439
		C5.125,2.32,5.962,2.261,6.481,2.261C8.138,2.173,10.042,2.129,12.193,2.129z M9.689,7.053c0,1.601,0,3.289,0,5.064
		c0,0.543,0,1.013,0,1.407c0.012,0.1,0.043,0.15,0.094,0.15h0.019c0.056,0,0.366-0.172,0.928-0.517
		c1.682-0.956,3.313-1.897,4.896-2.823c0.037-0.043,0.057-0.078,0.057-0.103c0-0.063-0.15-0.169-0.451-0.319l-4.454-2.588
		C10.208,6.981,9.889,6.81,9.82,6.81H9.783C9.72,6.81,9.689,6.891,9.689,7.053z"/>
</g>
</svg>
